<?xml version="1.0" encoding="iso-8859-1"?>
<!-- Uploaded to: SVG Repo, www.svgrepo.com, Generator: SVG Repo Mixer Tools -->
<!DOCTYPE svg PUBLIC "-//W3C//DTD SVG 1.1//EN" "http://www.w3.org/Graphics/SVG/1.1/DTD/svg11.dtd">
<svg fill="#2488FF" version="1.1" id="Capa_1" xmlns="http://www.w3.org/2000/svg" xmlns:xlink="http://www.w3.org/1999/xlink" 
	 viewBox="0 0 51.39 51.39" xml:space="preserve"
	>
<g>
	<g>
		<path d="M50.22,30.385H30.388l-0.005,19.836c0,0.644,0.525,1.168,1.168,1.168c0.646,0,1.168-0.524,1.168-1.168l0.005-15.847
			l15.908,15.906c0.23,0.23,0.529,0.342,0.828,0.342s0.6-0.114,0.828-0.342c0.451-0.454,0.451-1.195,0-1.652L34.377,32.723h15.845
			c0.646,0,1.168-0.522,1.168-1.168C51.388,30.91,50.863,30.385,50.22,30.385z"/>
		<path d="M19.836,0.001c-0.646,0-1.168,0.523-1.168,1.168l-0.004,15.847L2.756,1.108c-0.454-0.456-1.196-0.456-1.651,0
			c-0.454,0.455-0.454,1.195,0,1.652l15.909,15.907H1.168C0.523,18.667,0,19.189,0,19.835c0,0.645,0.523,1.168,1.168,1.168H21
			l0.004-19.834C21.004,0.524,20.483,0.001,19.836,0.001z"/>
		<path d="M1.168,30.385C0.523,30.385,0,30.91,0,31.553c0,0.646,0.523,1.167,1.168,1.167h15.844L1.103,48.628
			c-0.454,0.457-0.454,1.198,0,1.652c0.23,0.23,0.531,0.342,0.827,0.342s0.598-0.114,0.827-0.342l15.91-15.908l0.004,15.849
			c0,0.644,0.522,1.168,1.168,1.168c0.642,0,1.168-0.524,1.168-1.168l-0.005-19.836H1.168z"/>
		<path d="M50.22,21.005c0.643,0,1.168-0.524,1.168-1.168c0-0.646-0.525-1.168-1.168-1.168H34.375L50.284,2.762
			c0.456-0.456,0.456-1.196,0-1.651c-0.454-0.455-1.195-0.455-1.651,0L32.724,17.018L32.719,1.169c0-0.645-0.522-1.168-1.168-1.168
			c-0.643,0-1.168,0.523-1.168,1.168l0.005,19.834L50.22,21.005z"/>
	</g>
</g>
</svg>